<?xml version="1.0" encoding="UTF-8"?>
<svg width="37px" height="38px" viewBox="0 0 37 38" version="1.1" xmlns="http://www.w3.org/2000/svg" xmlns:xlink="http://www.w3.org/1999/xlink">
    <title>Icons / Banking / ic_checking_account_values Copy 2</title>
    <g id="LP" stroke="none" stroke-width="1" fill="none" fill-rule="evenodd">
        <g id="PF_V1" transform="translate(-508.000000, -1598.000000)" fill="#5AB8CA" fill-rule="nonzero">
            <g id="Icons-/-Banking-/-ic_checking_account_values-Copy-2" transform="translate(508.488558, 1598.993484)">
                <path d="M35.0228849,23.9877684 C35.5751697,23.9877684 36.0228849,24.4354837 36.0228849,24.9877684 L36.0228849,29.0570316 C36.0228849,32.8996975 32.8807482,36.0130316 29.0111594,36.0130316 L25.032174,36.0130316 C24.4798893,36.0130316 24.032174,35.5653163 24.032174,35.0130316 C24.032174,34.4607468 24.4798893,34.0130316 25.032174,34.0130316 L29.0111594,34.0130316 C31.7802806,34.0130316 34.0228849,31.7909842 34.0228849,29.0570316 L34.0228849,24.9877684 C34.0228849,24.4354837 34.4706002,23.9877684 35.0228849,23.9877684 Z M27.0021088,8.0004 C27.5543936,8.0004 28.0021088,8.44811525 28.0021088,9.0004 L28.0021088,27.0004 C28.0021088,27.5526847 27.5543936,28.0004 27.0021088,28.0004 C26.4498241,28.0004 26.0021088,27.5526847 26.0021088,27.0004 L26.0021088,9.0004 C26.0021088,8.44811525 26.4498241,8.0004 27.0021088,8.0004 Z M29.0111594,0 C32.8807482,0 36.0228849,3.11333405 36.0228849,6.956 L36.0228849,11.0252632 C36.0228849,11.5775479 35.5751697,12.0252632 35.0228849,12.0252632 C34.4706002,12.0252632 34.0228849,11.5775479 34.0228849,11.0252632 L34.0228849,6.956 C34.0228849,4.22204736 31.7802806,2 29.0111594,2 L25.032174,2 C24.4798893,2 24.032174,1.55228475 24.032174,1 C24.032174,0.44771525 24.4798893,0 25.032174,0 L29.0111594,0 Z M1,23.9877684 C1.55228475,23.9877684 2,24.4354837 2,24.9877684 L2,29.0570316 C2,31.7909842 4.24260437,34.0130316 7.01172555,34.0130316 L10.9907109,34.0130316 C11.5429956,34.0130316 11.9907109,34.4607468 11.9907109,35.0130316 C11.9907109,35.5653163 11.5429956,36.0130316 10.9907109,36.0130316 L7.01172555,36.0130316 C3.14213669,36.0130316 0,32.8996975 0,29.0570316 L0,24.9877684 C0,24.4354837 0.44771525,23.9877684 1,23.9877684 Z M9.008044,8.0004 C9.56032875,8.0004 10.008044,8.44811525 10.008044,9.0004 L10.008044,27.0004 C10.008044,27.5526847 9.56032875,28.0004 9.008044,28.0004 C8.45575925,28.0004 8.008044,27.5526847 8.008044,27.0004 L8.008044,9.0004 C8.008044,8.44811525 8.45575925,8.0004 9.008044,8.0004 Z M10.9907109,0 C11.5429956,0 11.9907109,0.44771525 11.9907109,1 C11.9907109,1.55228475 11.5429956,2 10.9907109,2 L7.01172555,2 C4.24260437,2 2,4.22204736 2,6.956 L2,11.0252632 C2,11.5775479 1.55228475,12.0252632 1,12.0252632 C0.44771525,12.0252632 0,11.5775479 0,11.0252632 L0,6.956 C0,3.11333405 3.14213669,0 7.01172555,0 L10.9907109,0 Z M24.008044,27.0004 L24.008044,9.0004 C24.008044,8.44811525 23.5603287,8.0004 23.008044,8.0004 C22.4557592,8.0004 22.008044,8.44811525 22.008044,9.0004 L22.008044,27.0004 C22.008044,27.5526847 22.4557592,28.0004 23.008044,28.0004 C23.5603287,28.0004 24.008044,27.5526847 24.008044,27.0004 Z M12.008044,9.0004 L12.008044,27.0004 C12.008044,27.5526847 12.4557592,28.0004 13.008044,28.0004 C13.5603287,28.0004 14.008044,27.5526847 14.008044,27.0004 L14.008044,9.0004 C14.008044,8.44811525 13.5603287,8.0004 13.008044,8.0004 C12.4557592,8.0004 12.008044,8.44811525 12.008044,9.0004 Z M18.008044,9.0004 L18.008044,27.0004 C18.008044,27.5526847 18.4557592,28.0004 19.008044,28.0004 C19.5603287,28.0004 20.008044,27.5526847 20.008044,27.0004 L20.008044,9.0004 C20.008044,8.44811525 19.5603287,8.0004 19.008044,8.0004 C18.4557592,8.0004 18.008044,8.44811525 18.008044,9.0004 Z" id="Icon"></path>
            </g>
        </g>
    </g>
</svg>