<?xml version="1.0" encoding="UTF-8"?>
<svg width="29px" height="40px" viewBox="0 0 29 40" version="1.1" xmlns="http://www.w3.org/2000/svg" xmlns:xlink="http://www.w3.org/1999/xlink">
    <title>Icons / Banking / ic_checking_account_values Copy 4</title>
    <g id="LP" stroke="none" stroke-width="1" fill="none" fill-rule="evenodd">
        <g id="PF_V1" transform="translate(-832.000000, -1597.000000)" fill="#5AB8CA" fill-rule="nonzero">
            <g id="Icons-/-Banking-/-ic_checking_account_values-Copy-4" transform="translate(832.500000, 1597.000000)">
                <path d="M27,0 C27.5522847,0 28,0.44771525 28,1 L28,39 C28,39.5522847 27.5522847,40 27,40 L1,40 C0.44771525,40 0,39.5522847 0,39 L0,1 C0,0.44771525 0.44771525,0 1,0 Z M26,2 L2,2 L2,38 L26,38 L26,2 Z M13.9648,19.0004 C14.5170847,19.0004 14.9648,19.4481153 14.9648,20.0004 L14.9650985,20.74252 C15.3370427,20.8228639 15.705537,20.9372635 16.0677464,21.0786825 C16.5105366,21.251563 16.8535211,21.4269652 17.0645279,21.5546547 C17.5370325,21.8405879 17.6882786,22.4554232 17.4023453,22.9279279 C17.1164121,23.4004325 16.5015768,23.5516786 16.0290721,23.2657453 C15.9095789,23.1934348 15.6659384,23.068837 15.3403536,22.9417175 C14.806928,22.7334498 14.2672477,22.6102 13.7708,22.6102 C12.8197173,22.6102 12.2168,23.0246655 12.2168,23.4882 C12.2168,24.0468778 12.7365453,24.4276912 14.4449656,25.1041897 L14.622661,25.1744863 C17.0197749,26.1231527 17.9368,26.77247 17.9368,28.3922 C17.9368,30.0493126 16.7610463,31.0651951 14.9659715,31.3378195 L14.9648,32.0186 C14.9648,32.5708847 14.5170847,33.0186 13.9648,33.0186 C13.4125153,33.0186 12.9648,32.5708847 12.9648,32.0186 L12.9648119,31.3476449 C12.3451637,31.2619471 11.7944407,31.0939515 11.3133473,30.8618946 C10.8505935,30.638684 10.5303914,30.3986654 10.3430411,30.2044242 C9.95963173,29.8069123 9.97106399,29.1738506 10.3685758,28.7904411 C10.7660877,28.4070317 11.3991494,28.418464 11.7825589,28.8159758 C11.8127086,28.8472346 11.9437565,28.945466 12.1822527,29.0605054 C12.6285917,29.2757983 13.1999364,29.4099091 13.9144137,29.4121709 L13.9648,29.4086 C13.978063,29.4086 13.9912657,29.4088582 14.0044033,29.4093699 L13.9328,29.4122 C15.3269918,29.4122 15.9368,29.0171212 15.9368,28.3922 C15.9368,27.9909804 15.4709488,27.6611254 13.8866923,27.0341503 L13.7086344,26.9637103 C11.2198637,25.9782092 10.2168,25.2432722 10.2168,23.4882 C10.2168,21.9781859 11.4086821,20.942772 12.9646852,20.6773674 L12.9648,20.0004 C12.9648,19.4481153 13.4125153,19.0004 13.9648,19.0004 Z M21,14 C21.5522847,14 22,14.4477153 22,15 C22,15.5522847 21.5522847,16 21,16 L7,16 C6.44771525,16 6,15.5522847 6,15 C6,14.4477153 6.44771525,14 7,14 Z M21,8 C21.5522847,8 22,8.44771525 22,9 C22,9.55228475 21.5522847,10 21,10 L7,10 C6.44771525,10 6,9.55228475 6,9 C6,8.44771525 6.44771525,8 7,8 Z" id="Icon"></path>
            </g>
        </g>
    </g>
</svg>