<?xml version="1.0" encoding="UTF-8"?>
<svg width="41px" height="40px" viewBox="0 0 41 40" version="1.1" xmlns="http://www.w3.org/2000/svg" xmlns:xlink="http://www.w3.org/1999/xlink">
    <title>Icons / Banking / ic_checking_account_values</title>
    <g id="LP" stroke="none" stroke-width="1" fill="none" fill-rule="evenodd">
        <g id="PF_V1" transform="translate(-185.000000, -1597.000000)" fill="#5AB8CA" fill-rule="nonzero">
            <g id="Icons-/-Banking-/-ic_checking_account_values" transform="translate(185.500000, 1597.000000)">
                <path d="M16.954,0 C17.219251,0 17.4736352,0.105384212 17.6611773,0.292963714 L27.6911773,10.3249637 C27.8776828,10.5115065 27.9829282,10.7641849 27.9839919,11.0279678 L28,14.9959678 C28.0022188,15.548248 27.5563125,15.9977649 27.0040322,16 C26.451752,16.0022188 26.0022351,15.5563125 26,15.0040322 L25.987,12 L17.046,12 C16.5331642,12 16.1104928,11.6139598 16.0527277,11.1166211 L16.046,11 L16.046,2 L2,2 L2,38 L15,38 C15.5522847,38 16,38.4477153 16,39 C16,39.5522847 15.5522847,40 15,40 L1,40 C0.44771525,40 0,39.5522847 0,39 L0,1 C0,0.44771525 0.44771525,0 1,0 L16.954,0 Z M37.1531368,18.0017636 C38.7599024,18.0017636 39.9998737,19.4297871 39.9998737,21.1285738 L39.999,30.98 L40,30.9978411 C40,31.003573 39.9999518,31.0092936 39.9998557,31.0150026 L39.9998737,32.8769457 C39.9998737,34.5757325 38.7599024,36.003756 37.1531368,36.003756 L16.8466105,36.003756 C15.2398449,36.003756 13.9998737,34.5757325 13.9998737,32.8769457 L13.9998737,21.1285738 C13.9998737,19.4297871 15.2398449,18.0017636 16.8466105,18.0017636 Z M37.999,31.997 L15.999,31.997 L15.9998737,32.8769457 C15.9998737,33.482422 16.3553249,33.9350287 16.7539867,33.9965976 L16.8466105,34.003756 L37.1531368,34.003756 C37.5876344,34.003756 37.9998737,33.5289971 37.9998737,32.8769457 L37.999,31.997 Z M37.999,28.002 L15.999,28.002 L15.999,29.997 L37.999,29.997 L37.999,28.002 Z M37.1531368,20.0017636 L16.8466105,20.0017636 C16.412113,20.0017636 15.9998737,20.4765225 15.9998737,21.1285738 L15.999,26.002 L37.999,26.002 L37.9998737,21.1285738 C37.9998737,20.5230976 37.6444225,20.0704908 37.2457607,20.0089219 L37.1531368,20.0017636 Z M18.046,3.507 L18.046,10 L24.538,10 L18.046,3.507 Z" id="Icon"></path>
            </g>
        </g>
    </g>
</svg>