<?xml version="1.0" encoding="UTF-8"?>
<svg width="41px" height="40px" viewBox="0 0 41 40" version="1.1" xmlns="http://www.w3.org/2000/svg" xmlns:xlink="http://www.w3.org/1999/xlink">
    <title>Icons / Banking / ic_checking_account_values Copy 3</title>
    <defs>
        <path d="M33.948,0 C37.2902847,0 40,2.70971525 40,6.052 L40,22.98 L39.99995,22.9900967 C39.9999833,22.9934605 40,22.9968283 40,23.0002 L40,24.9762 C40,28.3208551 37.2879143,31.0322 33.942,31.0322 L24.263,31.032 L25.812,37.999 L27.0098,37.9996 C27.5226358,37.9996 27.9453072,38.3856402 28.0030723,38.8829789 L28.0098,38.9996 C28.0098,39.5518847 27.5620847,39.9996 27.0098,39.9996 L13.0098,39.9996 C12.4575153,39.9996 12.0098,39.5518847 12.0098,38.9996 C12.0098,38.4473153 12.4575153,37.9996 13.0098,37.9996 L14.208,37.999 L15.757,31.032 L6.052,31.0322 C2.70971525,31.0322 0,28.3224847 0,24.9802 L0,23.0002 L5.08472354e-05,22.9901903 C1.69757839e-05,22.9867976 0,22.9834008 0,22.98 L0,6.056 C0,2.71171525 2.71171525,0 6.056,0 L33.948,0 Z M22.215,31.032 L17.805,31.032 L16.257,37.999 L23.763,37.999 L22.215,31.032 Z M38,24.0002 L2,24.0002 L2,24.9802 C2,27.2179153 3.81428475,29.0322 6.052,29.0322 L33.942,29.0322 C36.1834671,29.0322 38,27.2161633 38,24.9762 L38,24.0002 Z M33.948,2 L6.056,2 C3.81628475,2 2,3.81628475 2,6.056 L2,22 L10.0302216,22.0009823 C10.0103262,21.874332 10,21.744558 10,21.6126 L10,20.7926 C10,18.4775569 12.5810011,16.7686 15.522,16.7686 C15.852551,16.7686 16.2193505,16.8080103 16.6696134,16.8814692 C16.8113745,16.904597 16.9565385,16.9302404 17.1350489,16.963204 C17.4399687,17.0202591 17.5840091,17.0471257 17.7052434,17.0684329 C18.157578,17.1498961 18.6098809,17.2551455 19.0656494,17.3850826 C19.165926,17.4148871 19.165926,17.4148871 19.2596757,17.4434765 L19.3875531,17.4823017 C19.6889491,17.5727966 19.8536399,17.6066 19.998,17.6066 C20.1249708,17.6066 20.384991,17.5495098 20.8579223,17.4153301 L20.9437787,17.3908901 C21.246273,17.3045806 21.3222563,17.2832644 21.4593917,17.2475557 C22.5809695,16.9522611 23.6278922,16.7686 24.474,16.7686 C27.5880927,16.7686 30,18.4311474 30,20.7946 L30,21.6146 C30,21.7458617 29.9897825,21.8749623 29.9700924,22.000977 L38,22 L38,6.052 C38,3.81428475 36.1857153,2 33.948,2 Z M24.474,18.7686 C23.8377754,18.7686 22.937668,18.9265054 21.9660115,19.1823242 C21.8476173,19.2131561 21.7773419,19.232871 21.4925304,19.3141351 L21.403815,19.3393886 C20.7394044,19.5278947 20.3809371,19.6066 19.998,19.6066 C19.6100497,19.6066 19.2867476,19.5402411 18.8124137,19.3978211 L18.6760868,19.3564386 C18.5862871,19.3290622 18.5862871,19.3290622 18.5098925,19.3062991 C18.1250108,19.1965985 17.7373403,19.1063888 17.354974,19.0375173 C17.2258395,19.0148315 17.0692154,18.9856177 16.7718714,18.9299531 C16.6058987,18.8993047 16.4734716,18.8759113 16.3475779,18.8553722 C15.9947434,18.7978084 15.7228947,18.7686 15.522,18.7686 C13.5539162,18.7686 12,19.7974937 12,20.7926 L12,21.6126 C12,21.834766 12.1308903,21.9786 12.2441289,21.9786 L27.756,21.9806 C27.8691097,21.9806 28,21.836766 28,21.6146 L28,20.7946 C28,19.7282438 26.6078161,18.7686 24.474,18.7686 Z M19.9952,3.98 C22.8371237,3.98 25.3197939,6.26257441 24.8760419,8.98343593 L24.3857157,13.0551179 C24.0437321,15.292154 22.2722876,16.818 19.9952,16.818 C17.7202311,16.818 15.9526906,15.292302 15.6062999,13.0229514 L15.1281895,9.02465549 C14.6786409,6.26278829 17.1557792,3.98 19.9952,3.98 Z M19.9952,5.98 C18.2879484,5.98 16.8714118,7.28539874 17.1081001,8.7450486 L17.5877157,12.7528821 C17.780764,14.0156793 18.7102628,14.818 19.9952,14.818 C21.2831466,14.818 22.2157918,14.0146596 22.4043581,12.7845641 L22.8961895,8.70334451 C23.1268062,7.28651698 21.7057569,5.98 19.9952,5.98 Z" id="path-1"></path>
    </defs>
    <g id="LP" stroke="none" stroke-width="1" fill="none" fill-rule="evenodd">
        <g id="PF_V1" transform="translate(-666.000000, -1597.000000)">
            <g id="Icons-/-Banking-/-ic_checking_account_values-Copy-3" transform="translate(666.500000, 1597.000000)">
                <mask id="mask-2" fill="white">
                    <use xlink:href="#path-1"></use>
                </mask>
                <use id="Icon-color" fill="#5AB8CA" fill-rule="nonzero" xlink:href="#path-1"></use>
            </g>
        </g>
    </g>
</svg>