<?xml version="1.0" encoding="UTF-8"?>
<svg width="25px" height="40px" viewBox="0 0 25 40" version="1.1" xmlns="http://www.w3.org/2000/svg" xmlns:xlink="http://www.w3.org/1999/xlink">
    <title>Icons / Banking / ic_checking_account_values Copy 5</title>
    <g id="LP" stroke="none" stroke-width="1" fill="none" fill-rule="evenodd">
        <g id="PF_V1" transform="translate(-995.000000, -1597.000000)" fill="#5AB8CA" fill-rule="nonzero">
            <g id="Icons-/-Banking-/-ic_checking_account_values-Copy-5" transform="translate(995.500000, 1597.000000)">
                <path d="M20.076,0 C22.2442847,0 24,1.75571525 24,3.924 L24,36.074 C24,38.2424552 22.2441149,40 20.076,40 L3.924,40 C1.75588515,40 0,38.2424552 0,36.074 L0,3.924 C0,1.75571525 1.75571525,0 3.924,0 L20.076,0 Z M20.076,2 L3.924,2 C2.86028475,2 2,2.86028475 2,3.924 L2,36.074 C2,37.1383085 2.86087784,38 3.924,38 L20.076,38 C21.1391222,38 22,37.1383085 22,36.074 L22,3.924 C22,2.86028475 21.1397153,2 20.076,2 Z M13,33.9992 C13.5522847,33.9992 14,34.4469153 14,34.9992 C14,35.5514847 13.5522847,35.9992 13,35.9992 L11,35.9992 C10.4477153,35.9992 10,35.5514847 10,34.9992 C10,34.4469153 10.4477153,33.9992 11,33.9992 L13,33.9992 Z M15,3.9992 C15.5522847,3.9992 16,4.44691525 16,4.9992 C16,5.55148475 15.5522847,5.9992 15,5.9992 L9,5.9992 C8.44771525,5.9992 8,5.55148475 8,4.9992 C8,4.44691525 8.44771525,3.9992 9,3.9992 Z" id="Icon"></path>
            </g>
        </g>
    </g>
</svg>